<svg version="1.1" id="Layer_1" xmlns="http://www.w3.org/2000/svg" xmlns:xlink="http://www.w3.org/1999/xlink" x="0px" y="0px"
	 width="100%" viewBox="0 0 480 496" enable-background="new 0 0 480 496" xml:space="preserve">
<path fill="#000000" opacity="1.000000" stroke="none" 
	d="
M1.000000,248.468658 
	C3.310050,235.609009 4.144037,223.021500 7.446871,210.729599 
	C17.344511,173.894363 35.296894,141.630676 61.721733,114.302589 
	C95.168526,79.712524 135.820618,58.430527 183.422348,50.713417 
	C195.414917,48.769203 207.457718,47.259747 219.652145,47.699368 
	C221.272797,47.757790 222.987595,47.255871 225.858292,49.218796 
	C167.448990,54.897793 118.582611,78.206207 80.097610,121.074242 
	C41.490807,164.077942 22.912563,215.201416 24.645887,272.898743 
	C26.307337,328.203705 46.836143,376.347229 85.208565,416.246887 
	C123.316597,455.871643 170.290451,477.767914 225.252945,482.834320 
	C220.738266,485.100708 216.085861,484.472198 211.693268,484.077942 
	C195.984344,482.667969 180.251022,481.494507 164.865952,477.461090 
	C115.929825,464.631683 75.927376,438.464233 45.199131,398.196777 
	C24.325151,370.842712 10.711447,340.240234 4.309743,306.474701 
	C2.827694,298.657715 2.243677,290.670471 1.123212,282.380798 
	C1.000000,270.979095 1.000000,259.958221 1.000000,248.468658 
z"/>
<path fill="#000000" opacity="1.000000" stroke="none" 
	d="
M307.947235,338.680176 
	C300.039398,360.450043 285.062347,374.131165 263.343414,380.563141 
	C255.779114,382.803253 248.042099,383.408722 240.152603,383.371674 
	C210.497223,383.232391 180.840698,383.349823 151.184830,383.281097 
	C147.293472,383.272095 143.696198,383.952240 140.015411,385.278992 
	C128.299973,389.501740 113.984207,383.521545 110.670456,373.305542 
	C107.607315,363.862152 112.227600,353.982483 121.739975,350.635864 
	C130.462173,347.567261 139.123962,347.766876 147.025223,353.261627 
	C148.948746,354.599274 150.922867,354.994049 153.118271,354.995819 
	C183.273926,355.020081 213.431763,355.274200 243.584488,354.989380 
	C263.299622,354.803131 276.141510,343.645538 279.807373,324.593353 
	C280.556458,320.700287 283.158203,319.814819 289.967896,320.693115 
	C293.883392,321.198151 293.046967,323.681183 292.825134,326.219696 
	C290.834625,348.996521 268.388733,367.496704 245.049683,367.341492 
	C216.894409,367.154236 188.736801,367.290924 160.580414,367.365692 
	C158.509460,367.371185 155.813477,366.341522 154.588455,369.587494 
	C156.713669,371.909668 159.525818,371.581909 162.045090,371.566650 
	C178.534119,371.467010 195.022095,371.821960 211.514938,371.276520 
	C220.990616,370.963226 230.493698,371.528992 239.985184,371.631958 
	C255.189651,371.796936 269.178619,367.800629 280.462158,357.428589 
	C303.234863,336.495544 303.696594,305.909180 280.895508,285.088348 
	C270.096191,275.226929 257.322235,270.880676 242.550964,271.016449 
	C224.576431,271.181610 206.519135,272.360870 188.618546,270.275085 
	C167.069199,267.764038 151.094971,256.476959 141.309906,237.056290 
	C138.479538,231.438766 137.161163,225.147644 136.729706,218.771744 
	C136.532074,215.851089 137.308746,213.568222 140.705215,213.956512 
	C143.903091,214.322113 148.561172,211.888260 149.318130,217.853073 
	C151.524139,235.236130 161.254303,247.061066 176.681732,254.558777 
	C184.395172,258.307465 192.864685,258.347992 201.125244,258.549042 
	C216.277374,258.917755 231.446030,258.534851 246.605331,258.696472 
	C275.651215,259.006165 304.782562,281.000793 309.618591,310.164459 
	C311.182312,319.594391 311.095612,329.059113 307.947235,338.680176 
M126.380135,366.105103 
	C125.579781,369.429565 126.747528,371.758789 130.119583,372.458344 
	C133.174103,373.092010 136.195297,372.714233 138.025787,369.734589 
	C139.414551,367.473999 138.380493,365.546783 136.494980,364.116058 
	C133.531540,361.867462 130.482361,361.429352 127.527657,364.190765 
	C127.173012,364.522186 126.953598,364.998352 126.380135,366.105103 
z"/>
<path fill="#000000" opacity="1.000000" stroke="none" 
	d="
M188.089294,184.930786 
	C174.047913,188.969040 164.573395,200.646545 166.332092,217.341339 
	C167.759064,230.887146 179.723175,242.356430 193.583237,242.643524 
	C207.235977,242.926315 220.901917,242.908798 234.555038,242.650665 
	C239.320999,242.560562 240.423691,244.343979 240.478806,248.783600 
	C240.535065,253.314560 238.910889,254.473572 234.656418,254.407715 
	C221.167831,254.198914 207.673615,254.269623 194.182205,254.346802 
	C173.490173,254.465164 149.535217,235.164597 154.036835,207.605087 
	C157.505768,186.367767 174.277634,172.202682 197.358444,172.035980 
	C224.174225,171.842285 250.992355,171.984406 277.809418,171.940781 
	C280.100342,171.937057 282.463409,172.370560 284.660645,171.369019 
	C284.901794,164.763443 284.789001,164.473373 278.358032,164.454086 
	C250.375290,164.370163 222.391953,164.330139 194.409576,164.449432 
	C190.719101,164.465149 188.401230,164.346680 188.619873,159.613937 
	C188.919739,153.122971 188.931641,152.714630 194.699615,152.709946 
	C224.348373,152.685867 253.997223,152.655579 283.645813,152.719635 
	C287.413116,152.727768 290.535706,151.875046 293.881866,149.821014 
	C303.401550,143.977341 313.546112,143.962204 323.360168,149.151001 
	C330.608185,152.983109 334.395325,161.282074 333.208954,168.946793 
	C332.087433,176.192581 324.835693,183.354538 316.592682,185.091949 
	C312.703064,185.911789 308.818695,186.500168 304.740906,185.547958 
	C297.067139,183.756073 289.199280,184.176483 281.385864,184.177505 
	C254.069046,184.181107 226.752197,184.179352 199.435455,184.231857 
	C195.785126,184.238876 192.101181,183.928635 188.089294,184.930786 
M308.700317,170.476837 
	C312.232483,170.398636 315.001129,168.910080 315.399475,165.269043 
	C315.678131,162.722000 313.551880,161.081940 311.194672,160.418427 
	C307.616119,159.411194 304.294342,160.222198 303.037476,163.941437 
	C301.677185,167.966644 304.758331,169.416489 308.700317,170.476837 
z"/>
<path fill="#000000" opacity="1.000000" stroke="none" 
	d="
M359.697784,79.952057 
	C358.935822,84.828995 360.427032,89.100403 360.519012,94.426872 
	C363.151154,91.324722 365.219238,89.006615 367.147736,86.577682 
	C368.760529,84.546402 370.471893,83.692719 372.511017,85.837173 
	C374.184143,87.596725 377.603821,88.903175 374.972321,92.226601 
	C370.535065,97.830566 365.972504,103.335777 361.428894,108.854706 
	C360.490601,109.994423 359.191833,110.485008 357.887329,109.583260 
	C355.463959,107.908089 352.645477,106.514038 352.686188,102.852776 
	C352.744507,97.608772 352.701050,92.363647 352.701050,87.118996 
	C352.226746,87.006500 351.752441,86.894005 351.278137,86.781509 
	C349.195953,89.228249 347.028564,91.608604 345.055450,94.140366 
	C343.069031,96.689232 341.345276,96.119255 339.240570,94.251106 
	C337.255859,92.489510 335.210815,90.951180 337.509644,88.120033 
	C341.914307,82.695450 346.357788,77.302414 350.784607,71.895790 
	C352.217590,70.145599 353.749451,69.890099 355.419647,71.577606 
	C357.635620,73.816536 360.190338,75.870842 359.697784,79.952057 
z"/>
<path fill="#000000" opacity="1.000000" stroke="none" 
	d="
M430.484192,289.350769 
	C428.053345,288.953033 425.925476,288.340210 423.792786,288.323151 
	C419.537323,288.289062 418.440552,286.145691 418.700531,282.254150 
	C418.998627,277.791290 421.859131,278.296631 424.731079,278.733887 
	C429.981079,279.533173 435.233612,280.344757 440.444031,281.361572 
	C442.575684,281.777557 445.770874,281.381866 445.992371,284.475067 
	C446.228699,287.775452 445.558990,291.108368 442.213409,293.112396 
	C438.113403,295.568420 434.077118,298.130859 429.037109,301.251709 
	C432.907166,302.148621 435.697418,303.046204 438.554962,303.400238 
	C443.136017,303.967773 442.529297,307.118896 442.106415,310.078827 
	C441.651672,313.262177 439.391205,313.269257 436.812531,312.805634 
	C431.418457,311.835815 425.971741,311.147614 420.596008,310.092377 
	C418.492859,309.679565 415.346008,310.146973 414.995941,307.052246 
	C414.639801,303.903503 415.136108,300.656464 418.225616,298.685516 
	C422.565674,295.916748 426.952850,293.221893 431.311401,290.481964 
	C431.412415,290.418457 431.498322,290.129425 431.443542,290.056427 
	C431.260223,289.812134 431.009705,289.618286 430.484192,289.350769 
z"/>
<path fill="#000000" opacity="1.000000" stroke="none" 
	d="
M430.258820,348.958771 
	C427.969208,352.689728 425.813660,356.082733 422.083160,357.960205 
	C420.772064,358.620026 419.270966,359.334015 417.925354,358.022400 
	C416.739075,356.866028 417.442078,355.571747 417.869781,354.314117 
	C418.691498,351.897797 420.254730,350.056641 421.961609,348.178619 
	C426.298462,343.406860 426.834869,339.125214 423.595520,336.365234 
	C420.870331,334.043396 417.786743,333.019745 414.542450,335.479553 
	C411.267181,337.962860 410.140228,343.115326 412.014160,346.871521 
	C413.668823,345.488251 413.708282,343.338715 414.595337,341.628296 
	C415.379364,340.116577 416.339905,339.125092 418.102966,339.723877 
	C419.759857,340.286591 420.564972,341.700623 420.016113,343.279572 
	C418.492462,347.662659 417.410431,352.420380 414.879364,356.169647 
	C412.369751,359.887024 408.707031,356.732300 407.017059,354.707825 
	C402.233826,348.977875 403.400360,342.209198 405.596466,335.798706 
	C407.587769,329.986084 411.486176,325.596100 417.906128,324.786835 
	C427.684753,323.554199 435.172485,332.401001 432.750366,342.060028 
	C432.188873,344.299194 431.202332,346.431793 430.258820,348.958771 
z"/>
<path fill="#000000" opacity="1.000000" stroke="none" 
	d="
M325.526428,447.536530 
	C328.102295,452.433624 330.555237,456.972321 332.880585,461.575439 
	C333.692749,463.183197 334.758728,465.324921 332.317322,466.285461 
	C326.603760,468.533325 321.817596,472.728119 315.592316,473.907715 
	C308.330078,475.283813 302.770782,473.062286 299.917206,467.316711 
	C297.076233,461.596497 298.859009,455.109863 304.529114,450.472870 
	C307.903564,447.713257 311.658569,445.583771 315.600067,443.768677 
	C321.873535,440.879761 321.878906,440.891388 325.526428,447.536530 
M319.753815,457.594574 
	C318.263885,455.739044 319.152313,451.498260 315.270752,452.170990 
	C311.677155,452.793793 309.205627,455.519928 307.951080,458.941925 
	C306.971893,461.612732 308.245483,463.895203 310.461670,465.316559 
	C314.895111,468.160156 318.516541,465.611206 322.185608,463.596008 
	C322.142883,461.223816 320.909119,459.806641 319.753815,457.594574 
z"/>
<path fill="#000000" opacity="1.000000" stroke="none" 
	d="
M304.361450,73.684036 
	C297.947601,66.661499 296.725891,59.930470 300.708496,54.750343 
	C304.672333,49.594631 312.264130,47.876598 319.270538,50.549744 
	C327.432220,53.663666 333.480774,60.864967 333.150909,67.075455 
	C332.734131,74.921440 325.226013,80.390617 316.271790,79.062012 
	C312.001801,78.428436 307.849213,77.134087 304.361450,73.684036 
M318.762268,71.308342 
	C322.246033,69.654640 324.772003,67.101341 323.238403,63.121006 
	C321.714600,59.166088 318.434235,56.828403 313.916718,57.070858 
	C310.486572,57.254959 308.515076,59.480125 307.619324,62.530216 
	C306.759155,65.459152 308.090576,67.694801 310.677979,69.148651 
	C312.965607,70.434059 315.171265,72.046577 318.762268,71.308342 
z"/>
<path fill="#000000" opacity="1.000000" stroke="none" 
	d="
M396.852722,163.821503 
	C391.830872,151.803757 395.445923,146.184433 404.552307,142.694000 
	C406.561951,141.923706 408.548340,141.019180 410.402283,139.932251 
	C413.862457,137.903580 415.774445,139.120911 417.412140,142.465591 
	C419.150696,146.016098 417.098450,147.253448 414.501556,148.508118 
	C411.661224,149.880463 408.828461,151.274612 406.047882,152.763000 
	C403.056366,154.364319 401.379272,156.556335 403.318176,160.045975 
	C405.174927,163.387756 408.001129,163.489059 411.015961,162.076279 
	C414.018677,160.669220 416.908661,159.013474 419.804474,157.389145 
	C422.121552,156.089432 424.196869,155.695236 425.658600,158.517838 
	C427.041321,161.187790 428.038422,163.829361 424.509857,165.730331 
	C421.877686,167.148361 419.281647,168.639709 416.603516,169.965042 
	C407.644135,174.398819 402.143341,172.744995 396.852722,163.821503 
z"/>
<path fill="#000000" opacity="1.000000" stroke="none" 
	d="
M271.403931,42.306831 
	C267.873077,41.767124 264.960846,41.924648 263.323639,45.242767 
	C261.964966,47.996304 261.808380,50.823513 263.951172,53.174980 
	C266.448639,55.915672 269.843842,56.425980 273.131042,55.137306 
	C277.069214,53.593437 280.743286,53.064659 284.476227,55.407822 
	C284.876740,58.430393 282.832886,59.712498 280.867310,60.923519 
	C273.990723,65.160263 261.815765,63.416748 256.333282,57.475582 
	C249.859619,50.460308 252.506943,39.200932 261.462585,35.660107 
	C267.966156,33.088757 278.574890,35.338913 283.241394,40.503262 
	C284.960541,42.405800 287.658142,45.198921 285.433533,47.340866 
	C283.046234,49.639465 279.386841,48.497261 276.967743,46.027832 
	C275.429047,44.457165 274.052887,42.846691 271.403931,42.306831 
z"/>
<path fill="#000000" opacity="1.000000" stroke="none" 
	d="
M381.635620,108.666992 
	C385.032379,104.821190 388.520294,105.159279 392.163635,107.503075 
	C397.716461,111.075294 400.906616,116.077171 401.150726,122.749382 
	C401.211426,124.408821 400.994965,126.342522 399.205505,127.020302 
	C397.191132,127.783257 396.280273,125.928329 395.331024,124.618027 
	C394.062378,122.866760 392.869507,121.079048 392.806335,118.754250 
	C392.766113,117.273865 392.629089,115.658699 390.461884,115.584846 
	C388.715576,116.720955 389.534454,118.110680 390.025024,119.514946 
	C390.956909,122.182396 391.943420,124.840050 392.683990,127.562508 
	C393.485931,130.510437 392.807617,133.242294 390.493744,135.309097 
	C388.120728,137.428665 385.427094,137.325684 382.553894,136.205444 
	C376.645355,133.901749 371.222168,125.708046 371.746704,119.629166 
	C371.907410,117.766617 372.119415,115.721458 374.226379,115.158524 
	C376.324738,114.597893 376.888794,116.728142 377.864227,117.968155 
	C379.090729,119.527283 380.204987,120.995369 379.799072,123.352272 
	C379.416840,125.571762 380.832245,127.039650 383.415100,127.375389 
	C385.274353,124.771454 383.279968,122.640236 382.507874,120.489723 
	C381.153931,116.718391 379.362823,113.052940 381.635620,108.666992 
z"/>
<path fill="#000000" opacity="1.000000" stroke="none" 
	d="
M348.692963,427.232849 
	C350.484344,429.451202 352.169647,431.291779 353.626556,433.298157 
	C356.321472,437.009552 358.837372,440.622223 363.466583,435.339966 
	C364.583008,434.066010 366.230194,434.390015 367.340820,435.843628 
	C368.501587,437.362823 368.677643,439.042389 367.165894,440.302856 
	C361.435760,445.080505 355.642059,449.783875 349.797791,454.421295 
	C348.283569,455.622833 346.985016,454.615173 345.950897,453.397583 
	C344.818726,452.064575 344.911438,450.886719 346.062103,449.439362 
	C350.316986,444.087402 350.224274,443.691223 345.736664,438.587067 
	C344.096588,436.721680 342.778809,434.549103 341.015594,432.821198 
	C338.066223,429.931000 338.944244,427.834503 341.725281,425.465668 
	C344.829407,422.821686 346.754395,424.038605 348.692963,427.232849 
z"/>
<path fill="#000000" opacity="1.000000" stroke="none" 
	d="
M431.807434,223.788666 
	C436.230865,223.672531 438.687866,222.297653 437.571991,217.668579 
	C437.101074,215.715057 437.251221,213.945450 439.911774,213.731232 
	C442.256348,213.542450 443.132751,214.782852 443.423645,216.934082 
	C444.334290,223.668930 445.386475,230.384750 446.284393,237.121185 
	C446.545227,239.078247 446.107819,240.882919 443.636017,241.090576 
	C441.459076,241.273483 440.682251,239.858643 440.585693,237.998337 
	C440.343689,233.334122 437.933167,232.253159 433.644867,233.231873 
	C429.938416,234.077774 426.093140,234.296722 422.331268,234.924789 
	C419.478394,235.401138 418.282501,233.943100 417.999725,231.445694 
	C417.725616,229.025101 416.901672,226.167450 420.544586,225.481384 
	C424.133392,224.805511 427.766632,224.365585 431.807434,223.788666 
z"/>
<path fill="#000000" opacity="1.000000" stroke="none" 
	d="
M361.039490,412.675232 
	C359.135742,410.572083 360.160675,409.085632 361.426453,407.608948 
	C364.240875,404.325500 367.042786,401.031342 369.843292,397.736023 
	C371.383179,395.924133 372.910004,396.171021 374.562012,397.630096 
	C379.549469,402.034973 384.495300,406.492432 389.610596,410.745087 
	C392.720795,413.330811 391.617981,415.126007 389.413544,417.670685 
	C386.981201,420.478394 385.438751,420.212799 383.045441,417.722107 
	C380.291046,414.855682 376.976685,412.535980 374.096558,409.779266 
	C371.318695,407.120361 369.112915,407.181183 366.709167,410.276581 
	C365.440155,411.910797 364.470337,414.888245 361.039490,412.675232 
z"/>
<path fill="#000000" opacity="1.000000" stroke="none" 
	d="
M433.612640,190.722656 
	C427.967865,192.815598 422.199432,193.219254 417.198608,195.832184 
	C416.674622,198.697861 418.244232,200.867981 418.822815,203.247986 
	C419.317383,205.282410 418.662476,206.519135 416.727234,207.043747 
	C414.880219,207.544449 413.432037,207.067520 412.839355,205.028580 
	C411.538666,200.554321 410.172180,196.098129 408.946655,191.603439 
	C408.181915,188.798721 410.013885,187.736603 412.302704,187.053192 
	C418.041504,185.339630 423.753510,183.533569 429.513733,181.896332 
	C431.323639,181.381897 433.864929,180.133240 434.705078,182.791168 
	C435.481750,185.248322 438.231049,188.385788 433.612640,190.722656 
z"/>
<path fill="#000000" opacity="1.000000" stroke="none" 
	d="
M445.408875,264.662567 
	C437.714508,265.650299 430.430206,264.843262 423.153381,265.013123 
	C420.228729,265.081421 419.599609,263.210907 419.677246,260.742767 
	C419.751617,258.378632 419.539734,255.797928 422.962036,255.769287 
	C429.915283,255.711121 436.875671,255.584290 443.820801,255.831573 
	C447.773712,255.972321 448.531433,259.617340 445.408875,264.662567 
z"/>
<path fill="#000000" opacity="1.000000" stroke="none" 
	d="
M387.854919,380.318665 
	C384.103027,378.613953 385.062134,376.462067 386.754852,374.257111 
	C388.098328,372.507019 389.088898,369.809937 392.098419,371.617249 
	C393.566742,372.498993 395.909149,373.458893 394.741180,375.635437 
	C393.422607,378.092743 392.809631,382.190063 387.854919,380.318665 
z"/>
</svg>