<?xml version="1.0" standalone="no"?>
<!DOCTYPE svg PUBLIC "-//W3C//DTD SVG 20010904//EN"
 "http://www.w3.org/TR/2001/REC-SVG-20010904/DTD/svg10.dtd">
<svg version="1.0" xmlns="http://www.w3.org/2000/svg"
 width="1045.000000pt" height="239.000000pt" viewBox="0 0 1045.000000 239.000000"
 preserveAspectRatio="xMidYMid meet">

<g transform="translate(0.000000,239.000000) scale(0.100000,-0.100000)"
fill="#000000" stroke="none">
<path d="M9368 2179 c-24 -13 -23 -61 1 -83 27 -25 84 -32 100 -12 12 14 9 16
-29 14 -27 -1 -45 4 -51 13 -21 33 17 74 49 51 44 -32 74 -24 33 9 -25 21 -75
25 -103 8z"/>
<path d="M8945 2135 c-342 -63 -623 -303 -750 -638 -135 -358 -41 -775 238
-1049 160 -159 386 -264 607 -282 l65 -6 -65 15 c-104 23 -159 43 -257 92
-305 151 -514 459 -541 796 -25 314 74 586 292 802 142 141 300 228 491 270
81 18 17 18 -80 0z"/>
<path d="M9566 2089 c-29 -42 16 -101 78 -101 57 0 75 54 31 97 -31 32 -87 34
-109 4z m85 -9 c21 -12 25 -40 7 -58 -17 -17 -35 -15 -58 8 -16 16 -18 25 -10
40 12 22 32 25 61 10z"/>
<path d="M9757 1962 c-29 -29 -34 -41 -25 -50 9 -9 18 -6 41 16 l28 27 -6 -50
c-5 -38 -3 -54 7 -63 12 -9 23 -3 57 32 34 35 40 45 28 54 -11 9 -19 6 -38
-14 l-24 -26 -5 53 c-3 29 -10 54 -15 56 -6 2 -27 -14 -48 -35z"/>
<path d="M9925 1778 c7 -48 6 -51 -9 -39 -9 7 -16 22 -16 32 0 10 -4 21 -10
24 -6 3 -10 -5 -10 -19 0 -34 42 -81 65 -73 14 6 16 15 10 53 -5 35 -3 45 6
42 7 -2 13 -12 15 -22 5 -31 24 -44 24 -15 0 36 -27 69 -57 69 -24 0 -25 -1
-18 -52z"/>
<path d="M391 1804 c-69 -18 -112 -45 -156 -97 -112 -131 -41 -329 138 -382
37 -11 101 -15 239 -15 l188 0 0 30 0 30 -188 0 c-183 0 -190 1 -240 26 -73
36 -105 81 -109 152 -3 41 1 67 14 92 25 48 92 96 153 109 32 7 198 11 445 11
l395 0 0 30 0 30 -412 -1 c-329 0 -424 -3 -467 -15z"/>
<path d="M1432 1352 l3 -467 34 -70 c95 -194 332 -325 586 -325 186 0 370 72
486 190 43 44 79 92 100 136 l34 69 3 468 3 467 -40 0 -40 0 -3 -457 -3 -458
-29 -63 c-54 -118 -200 -228 -351 -267 -77 -20 -243 -20 -320 0 -155 40 -296
148 -351 267 l-29 63 -3 458 -3 457 -40 0 -40 0 3 -468z"/>
<path d="M2800 1155 l0 -665 40 0 40 0 0 665 0 665 -40 0 -40 0 0 -665z"/>
<path d="M2920 1155 l0 -665 570 0 570 0 0 35 0 35 -530 0 -530 0 0 630 0 630
-40 0 -40 0 0 -665z"/>
<path d="M4180 1155 l0 -665 40 0 40 0 0 630 0 630 585 0 585 0 0 35 0 35
-625 0 -625 0 0 -665z"/>
<path d="M5550 1155 l0 -665 40 0 40 0 0 665 0 665 -40 0 -40 0 0 -665z"/>
<path d="M5670 1155 l0 -665 45 0 45 0 -3 606 c-1 333 0 607 4 609 3 3 105
-132 225 -300 121 -167 222 -304 226 -304 4 -1 41 38 82 87 185 217 375 442
380 451 6 8 -41 41 -58 41 -3 0 -91 -102 -197 -227 -105 -126 -194 -229 -198
-230 -3 -1 -35 39 -71 89 -66 92 -109 151 -277 382 l-93 126 -55 0 -55 0 0
-665z"/>
<path d="M6390 1588 c-107 -127 -196 -235 -198 -239 -5 -12 59 -42 68 -32 5 4
39 45 77 89 37 45 118 141 178 213 l110 131 48 0 47 0 0 -630 0 -630 40 0 40
0 0 665 0 665 -107 0 -108 0 -195 -232z"/>
<path d="M7317 1813 c-3 -5 -62 -197 -132 -428 -69 -231 -137 -454 -150 -495
-49 -154 -116 -382 -113 -385 2 -1 19 -5 39 -9 l36 -6 31 97 c17 54 63 207
104 341 l72 242 318 0 c212 0 318 3 318 10 0 6 -41 142 -91 303 -51 161 -94
302 -97 315 -4 22 -6 22 -168 22 -89 0 -165 -3 -167 -7z m343 -318 l78 -250
-250 -3 c-138 -1 -253 0 -256 2 -3 4 71 255 139 474 l11 33 100 -3 100 -3 78
-250z"/>
<path d="M7709 1814 c-19 -6 -16 -15 117 -449 35 -115 64 -213 64 -217 0 -4
-146 -8 -325 -8 l-324 0 -21 -72 c-12 -40 -41 -138 -65 -218 -76 -257 -99
-340 -94 -344 2 -2 19 -6 38 -8 l34 -3 23 75 c13 41 51 171 85 288 l62 212
306 0 307 0 64 -212 c35 -117 74 -248 87 -290 l25 -77 31 6 c18 3 35 8 39 12
4 3 -20 96 -54 206 -33 110 -122 403 -197 650 -131 433 -137 450 -161 452 -14
0 -32 -1 -41 -3z"/>
<path d="M4307 1704 c-4 -4 -7 -126 -7 -271 l0 -263 565 0 565 0 0 35 0 35
-520 0 -520 0 -2 233 -3 232 -35 3 c-20 2 -39 0 -43 -4z"/>
<path d="M8700 1164 l0 -515 28 3 27 3 3 513 2 512 -30 0 -30 0 0 -516z"/>
<path d="M8790 1164 l0 -515 28 3 27 3 3 488 2 487 25 0 c22 0 59 -51 285
-390 143 -214 264 -390 268 -390 5 0 16 6 25 13 15 11 -12 55 -251 415 l-267
402 -72 0 -73 0 0 -516z"/>
<path d="M9528 1193 c-3 -480 -3 -488 -23 -488 -15 0 -84 96 -287 400 -151
226 -273 399 -280 397 -43 -11 -38 -20 238 -435 l277 -417 63 0 64 0 0 515 0
515 -25 0 -25 0 -2 -487z"/>
<path d="M10017 1659 c-46 -24 -53 -40 -37 -80 19 -44 41 -52 90 -33 43 18 49
41 9 36 -68 -8 -74 -7 -77 13 -2 15 7 25 33 38 34 16 44 31 28 40 -5 3 -25 -4
-46 -14z"/>
<path d="M60 1518 c0 -42 38 -124 79 -170 41 -47 118 -96 189 -121 49 -17 95
-20 342 -26 l285 -6 67 -32 c182 -86 254 -262 172 -413 -35 -65 -90 -113 -174
-154 l-65 -31 -427 -3 -428 -3 0 -34 0 -35 400 0 c251 0 419 4 452 11 132 27
269 125 326 232 24 46 27 63 27 147 0 83 -3 101 -26 145 -31 57 -113 139 -179
177 -94 55 -133 61 -435 67 l-280 6 -67 33 c-101 50 -178 147 -178 226 0 12
-10 16 -40 16 -38 0 -40 -1 -40 -32z"/>
<path d="M10080 1466 c-43 -12 -45 -14 -42 -47 1 -18 7 -38 13 -44 7 -7 10 -1
7 19 -3 28 0 31 42 41 25 6 44 14 43 18 -2 4 -3 12 -3 17 0 12 -2 12 -60 -4z"/>
<path d="M10153 1308 c2 -21 -3 -23 -45 -26 -38 -2 -48 -7 -48 -21 0 -16 7
-17 50 -13 46 4 50 3 50 -17 0 -11 5 -21 10 -21 11 0 13 28 4 83 -7 39 -25 53
-21 15z"/>
<path d="M1550 1152 c0 -250 19 -314 121 -413 125 -123 321 -175 511 -134 204
43 340 173 372 353 l6 32 -44 0 -43 0 -7 -47 c-8 -59 -42 -118 -99 -170 -83
-76 -184 -113 -312 -113 -168 0 -309 73 -383 199 -27 45 -27 50 -30 249 l-3
202 -45 0 -44 0 0 -158z"/>
<path d="M4300 815 l0 -325 45 0 45 0 0 290 0 290 520 0 520 0 0 35 0 35 -565
0 -565 0 0 -325z"/>
<path d="M10060 1126 c0 -18 22 -26 76 -26 52 0 62 24 13 34 -53 10 -89 7 -89
-8z"/>
<path d="M10050 1016 c0 -9 8 -16 18 -16 43 -1 44 -17 3 -41 -58 -32 -54 -54
12 -67 28 -5 54 -9 56 -7 11 11 -12 35 -34 35 -36 0 -31 14 14 35 40 17 59 50
36 59 -7 2 -33 8 -59 11 -39 6 -46 5 -46 -9z"/>
<path d="M1096 842 c-9 -60 -56 -115 -127 -151 l-62 -31 -404 0 -403 0 0 -35
0 -35 385 0 c473 0 506 6 612 103 52 48 70 80 82 142 l8 45 -42 0 c-41 0 -43
-1 -49 -38z"/>
<path d="M9998 810 c-25 -15 -42 -74 -28 -100 15 -28 34 -25 49 6 14 32 6 45
-13 19 -20 -28 -31 0 -12 30 19 29 51 33 65 7 10 -18 0 -44 -27 -72 -11 -11
-12 -15 -2 -18 19 -7 50 31 56 69 9 56 -38 87 -88 59z"/>
<path d="M3080 630 l0 -30 490 0 490 0 0 30 0 30 -490 0 -490 0 0 -30z"/>
<path d="M9877 606 c-3 -8 -3 -17 0 -20 9 -9 34 15 27 25 -8 13 -21 11 -27 -5z"/>
<path d="M9765 470 c-30 -32 -25 -42 7 -13 17 16 20 15 52 -16 50 -48 68 -29
20 20 -21 22 -41 39 -44 39 -4 0 -19 -13 -35 -30z"/>
<path d="M9653 379 c-9 -9 -5 -20 14 -46 23 -30 25 -38 14 -55 -19 -31 -10
-29 43 8 46 34 58 57 18 35 -17 -9 -23 -5 -46 29 -30 45 -28 44 -43 29z"/>
<path d="M9498 289 c-58 -30 -64 -90 -12 -109 19 -8 88 10 105 27 10 10 -30
103 -45 103 -6 -1 -28 -10 -48 -21z m50 -41 c9 -25 9 -34 -1 -40 -19 -12 -49
-5 -61 15 -9 15 -7 22 13 38 31 25 35 24 49 -13z"/>
</g>
</svg>
